# Blender 5.1.2
# www.blender.org
mtllib materials.mtl
o Lap_Bar_Crossbar
v -0.300000 0.090000 -0.625000
v -0.300000 0.090000 0.625000
v -0.282779 0.086575 -0.625000
v -0.282779 0.086575 0.625000
v -0.268180 0.076820 -0.625000
v -0.268180 0.076820 0.625000
v -0.258425 0.062221 -0.625000
v -0.258425 0.062221 0.625000
v -0.255000 0.045000 -0.625000
v -0.255000 0.045000 0.625000
v -0.258425 0.027779 -0.625000
v -0.258425 0.027779 0.625000
v -0.268180 0.013180 -0.625000
v -0.268180 0.013180 0.625000
v -0.282779 0.003425 -0.625000
v -0.282779 0.003425 0.625000
v -0.300000 0.000000 -0.625000
v -0.300000 -0.000000 0.625000
v -0.317221 0.003425 -0.625000
v -0.317221 0.003425 0.625000
v -0.331820 0.013180 -0.625000
v -0.331820 0.013180 0.625000
v -0.341575 0.027779 -0.625000
v -0.341575 0.027779 0.625000
v -0.345000 0.045000 -0.625000
v -0.345000 0.045000 0.625000
v -0.341575 0.062221 -0.625000
v -0.341575 0.062221 0.625000
v -0.331820 0.076820 -0.625000
v -0.331820 0.076820 0.625000
v -0.317221 0.086575 -0.625000
v -0.317221 0.086575 0.625000
vn 0.1951 0.9808 -0.0000
vn 0.5556 0.8315 -0.0000
vn 0.8315 0.5556 -0.0000
vn 0.9808 0.1951 -0.0000
vn 0.9808 -0.1951 -0.0000
vn 0.8315 -0.5556 -0.0000
vn 0.5556 -0.8315 -0.0000
vn 0.1951 -0.9808 -0.0000
vn -0.1951 -0.9808 -0.0000
vn -0.5556 -0.8315 -0.0000
vn -0.8315 -0.5556 -0.0000
vn -0.9808 -0.1951 -0.0000
vn -0.9808 0.1951 -0.0000
vn -0.8315 0.5556 -0.0000
vn -0.0000 -0.0000 1.0000
vn -0.5556 0.8315 -0.0000
vn -0.1951 0.9808 -0.0000
vn -0.0000 -0.0000 -1.0000
s 0
usemtl ShinyMetal_Edge
f 2//1 3//1 1//1
f 4//2 5//2 3//2
f 6//3 7//3 5//3
f 8//4 9//4 7//4
f 10//5 11//5 9//5
f 12//6 13//6 11//6
f 14//7 15//7 13//7
f 16//8 17//8 15//8
f 18//9 19//9 17//9
f 20//10 21//10 19//10
f 22//11 23//11 21//11
f 24//12 25//12 23//12
f 26//13 27//13 25//13
f 28//14 29//14 27//14
f 22//15 14//15 6//15
f 30//16 31//16 29//16
f 32//17 1//17 31//17
f 15//18 23//18 31//18
f 2//1 4//1 3//1
f 4//2 6//2 5//2
f 6//3 8//3 7//3
f 8//4 10//4 9//4
f 10//5 12//5 11//5
f 12//6 14//6 13//6
f 14//7 16//7 15//7
f 16//8 18//8 17//8
f 18//9 20//9 19//9
f 20//10 22//10 21//10
f 22//11 24//11 23//11
f 24//12 26//12 25//12
f 26//13 28//13 27//13
f 28//14 30//14 29//14
f 6//15 4//15 2//15
f 2//15 32//15 30//15
f 30//15 28//15 26//15
f 26//15 24//15 22//15
f 22//15 20//15 18//15
f 18//15 16//15 14//15
f 14//15 12//15 10//15
f 10//15 8//15 6//15
f 6//15 2//15 30//15
f 30//15 26//15 22//15
f 22//15 18//15 14//15
f 14//15 10//15 6//15
f 6//15 30//15 22//15
f 30//16 32//16 31//16
f 32//17 2//17 1//17
f 31//18 1//18 3//18
f 3//18 5//18 7//18
f 7//18 9//18 11//18
f 11//18 13//18 15//18
f 15//18 17//18 19//18
f 19//18 21//18 23//18
f 23//18 25//18 27//18
f 27//18 29//18 31//18
f 31//18 3//18 7//18
f 7//18 11//18 15//18
f 15//18 19//18 23//18
f 23//18 27//18 31//18
f 31//18 7//18 15//18
o Lap_Bar_Arm_L
v -0.300000 0.045000 -0.625000
v 0.000000 0.045000 -0.625000
v -0.300000 0.027779 -0.621575
v 0.000000 0.027779 -0.621575
v -0.300000 0.013180 -0.611820
v 0.000000 0.013180 -0.611820
v -0.300000 0.003425 -0.597221
v 0.000000 0.003425 -0.597221
v -0.300000 0.000000 -0.580000
v 0.000000 -0.000000 -0.580000
v -0.300000 0.003425 -0.562779
v 0.000000 0.003425 -0.562779
v -0.300000 0.013180 -0.548180
v 0.000000 0.013180 -0.548180
v -0.300000 0.027779 -0.538425
v 0.000000 0.027779 -0.538425
v -0.300000 0.045000 -0.535000
v 0.000000 0.045000 -0.535000
v -0.300000 0.062221 -0.538425
v 0.000000 0.062221 -0.538425
v -0.300000 0.076820 -0.548180
v 0.000000 0.076820 -0.548180
v -0.300000 0.086575 -0.562779
v 0.000000 0.086575 -0.562779
v -0.300000 0.090000 -0.580000
v 0.000000 0.090000 -0.580000
v -0.300000 0.086575 -0.597221
v 0.000000 0.086575 -0.597221
v -0.300000 0.076820 -0.611820
v 0.000000 0.076820 -0.611820
v -0.300000 0.062221 -0.621575
v 0.000000 0.062221 -0.621575
vn -0.0000 -0.1951 -0.9808
vn -0.0000 -0.5556 -0.8315
vn -0.0000 -0.8315 -0.5556
vn -0.0000 -0.9808 -0.1951
vn -0.0000 -0.9808 0.1951
vn -0.0000 -0.8315 0.5556
vn -0.0000 -0.5556 0.8315
vn -0.0000 -0.1951 0.9808
vn -0.0000 0.1951 0.9808
vn -0.0000 0.5556 0.8315
vn -0.0000 0.8315 0.5556
vn -0.0000 0.9808 0.1951
vn -0.0000 0.9808 -0.1951
vn -0.0000 0.8315 -0.5556
vn 1.0000 -0.0000 -0.0000
vn -0.0000 0.5556 -0.8315
vn -0.0000 0.1951 -0.9808
vn -1.0000 -0.0000 -0.0000
s 0
usemtl ShinyMetal_Edge
f 34//19 35//19 33//19
f 36//20 37//20 35//20
f 38//21 39//21 37//21
f 40//22 41//22 39//22
f 42//23 43//23 41//23
f 44//24 45//24 43//24
f 46//25 47//25 45//25
f 48//26 49//26 47//26
f 50//27 51//27 49//27
f 52//28 53//28 51//28
f 54//29 55//29 53//29
f 56//30 57//30 55//30
f 58//31 59//31 57//31
f 60//32 61//32 59//32
f 54//33 46//33 38//33
f 62//34 63//34 61//34
f 64//35 33//35 63//35
f 47//36 55//36 63//36
f 34//19 36//19 35//19
f 36//20 38//20 37//20
f 38//21 40//21 39//21
f 40//22 42//22 41//22
f 42//23 44//23 43//23
f 44//24 46//24 45//24
f 46//25 48//25 47//25
f 48//26 50//26 49//26
f 50//27 52//27 51//27
f 52//28 54//28 53//28
f 54//29 56//29 55//29
f 56//30 58//30 57//30
f 58//31 60//31 59//31
f 60//32 62//32 61//32
f 38//33 36//33 34//33
f 34//33 64//33 62//33
f 62//33 60//33 58//33
f 58//33 56//33 54//33
f 54//33 52//33 50//33
f 50//33 48//33 46//33
f 46//33 44//33 42//33
f 42//33 40//33 38//33
f 38//33 34//33 62//33
f 62//33 58//33 54//33
f 54//33 50//33 46//33
f 46//33 42//33 38//33
f 38//33 62//33 54//33
f 62//34 64//34 63//34
f 64//35 34//35 33//35
f 63//36 33//36 35//36
f 35//36 37//36 39//36
f 39//36 41//36 43//36
f 43//36 45//36 47//36
f 47//36 49//36 51//36
f 51//36 53//36 55//36
f 55//36 57//36 59//36
f 59//36 61//36 63//36
f 63//36 35//36 39//36
f 39//36 43//36 47//36
f 47//36 51//36 55//36
f 55//36 59//36 63//36
f 63//36 39//36 47//36
o Lap_Bar_Arm_R
v -0.300000 0.045000 0.535000
v 0.000000 0.045000 0.535000
v -0.300000 0.027779 0.538425
v 0.000000 0.027779 0.538425
v -0.300000 0.013180 0.548180
v 0.000000 0.013180 0.548180
v -0.300000 0.003425 0.562779
v 0.000000 0.003425 0.562779
v -0.300000 0.000000 0.580000
v 0.000000 -0.000000 0.580000
v -0.300000 0.003425 0.597221
v 0.000000 0.003425 0.597221
v -0.300000 0.013180 0.611820
v 0.000000 0.013180 0.611820
v -0.300000 0.027779 0.621575
v 0.000000 0.027779 0.621575
v -0.300000 0.045000 0.625000
v 0.000000 0.045000 0.625000
v -0.300000 0.062221 0.621575
v 0.000000 0.062221 0.621575
v -0.300000 0.076820 0.611820
v 0.000000 0.076820 0.611820
v -0.300000 0.086575 0.597221
v 0.000000 0.086575 0.597221
v -0.300000 0.090000 0.580000
v 0.000000 0.090000 0.580000
v -0.300000 0.086575 0.562779
v 0.000000 0.086575 0.562779
v -0.300000 0.076820 0.548180
v 0.000000 0.076820 0.548180
v -0.300000 0.062221 0.538425
v 0.000000 0.062221 0.538425
vn -0.0000 -0.1951 -0.9808
vn -0.0000 -0.5556 -0.8315
vn -0.0000 -0.8315 -0.5556
vn -0.0000 -0.9808 -0.1951
vn -0.0000 -0.9808 0.1951
vn -0.0000 -0.8315 0.5556
vn -0.0000 -0.5556 0.8315
vn -0.0000 -0.1951 0.9808
vn -0.0000 0.1951 0.9808
vn -0.0000 0.5556 0.8315
vn -0.0000 0.8315 0.5556
vn -0.0000 0.9808 0.1951
vn -0.0000 0.9808 -0.1951
vn -0.0000 0.8315 -0.5556
vn 1.0000 -0.0000 -0.0000
vn -0.0000 0.5556 -0.8315
vn -0.0000 0.1951 -0.9808
vn -1.0000 -0.0000 -0.0000
s 0
usemtl ShinyMetal_Edge
f 66//37 67//37 65//37
f 68//38 69//38 67//38
f 70//39 71//39 69//39
f 72//40 73//40 71//40
f 74//41 75//41 73//41
f 76//42 77//42 75//42
f 78//43 79//43 77//43
f 80//44 81//44 79//44
f 82//45 83//45 81//45
f 84//46 85//46 83//46
f 86//47 87//47 85//47
f 88//48 89//48 87//48
f 90//49 91//49 89//49
f 92//50 93//50 91//50
f 86//51 78//51 70//51
f 94//52 95//52 93//52
f 96//53 65//53 95//53
f 79//54 87//54 95//54
f 66//37 68//37 67//37
f 68//38 70//38 69//38
f 70//39 72//39 71//39
f 72//40 74//40 73//40
f 74//41 76//41 75//41
f 76//42 78//42 77//42
f 78//43 80//43 79//43
f 80//44 82//44 81//44
f 82//45 84//45 83//45
f 84//46 86//46 85//46
f 86//47 88//47 87//47
f 88//48 90//48 89//48
f 90//49 92//49 91//49
f 92//50 94//50 93//50
f 70//51 68//51 66//51
f 66//51 96//51 94//51
f 94//51 92//51 90//51
f 90//51 88//51 86//51
f 86//51 84//51 82//51
f 82//51 80//51 78//51
f 78//51 76//51 74//51
f 74//51 72//51 70//51
f 70//51 66//51 94//51
f 94//51 90//51 86//51
f 86//51 82//51 78//51
f 78//51 74//51 70//51
f 70//51 94//51 86//51
f 94//52 96//52 95//52
f 96//53 66//53 65//53
f 95//54 65//54 67//54
f 67//54 69//54 71//54
f 71//54 73//54 75//54
f 75//54 77//54 79//54
f 79//54 81//54 83//54
f 83//54 85//54 87//54
f 87//54 89//54 91//54
f 91//54 93//54 95//54
f 95//54 67//54 71//54
f 71//54 75//54 79//54
f 79//54 83//54 87//54
f 87//54 91//54 95//54
f 95//54 71//54 79//54
o Lap_Bar_Post_L
v -0.060000 -0.080000 -0.565000
v -0.060000 0.000000 -0.565000
v -0.060000 -0.080000 -0.625000
v -0.060000 0.000000 -0.625000
v 0.000000 -0.080000 -0.565000
v 0.000000 0.000000 -0.565000
v 0.000000 -0.080000 -0.625000
v 0.000000 0.000000 -0.625000
vn -1.0000 -0.0000 -0.0000
vn -0.0000 -0.0000 -1.0000
vn 1.0000 -0.0000 -0.0000
vn -0.0000 -0.0000 1.0000
vn -0.0000 -1.0000 -0.0000
vn -0.0000 1.0000 -0.0000
s 0
usemtl ShinyMetal_Edge
f 98//55 99//55 97//55
f 100//56 103//56 99//56
f 104//57 101//57 103//57
f 102//58 97//58 101//58
f 103//59 97//59 99//59
f 100//60 102//60 104//60
f 98//55 100//55 99//55
f 100//56 104//56 103//56
f 104//57 102//57 101//57
f 102//58 98//58 97//58
f 103//59 101//59 97//59
f 100//60 98//60 102//60
o Lap_Bar_Post_R
v -0.060000 -0.080000 0.625000
v -0.060000 0.000000 0.625000
v -0.060000 -0.080000 0.565000
v -0.060000 0.000000 0.565000
v 0.000000 -0.080000 0.625000
v 0.000000 0.000000 0.625000
v 0.000000 -0.080000 0.565000
v 0.000000 0.000000 0.565000
vn -1.0000 -0.0000 -0.0000
vn -0.0000 -0.0000 -1.0000
vn 1.0000 -0.0000 -0.0000
vn -0.0000 -0.0000 1.0000
vn -0.0000 -1.0000 -0.0000
vn -0.0000 1.0000 -0.0000
s 0
usemtl ShinyMetal_Edge
f 106//61 107//61 105//61
f 108//62 111//62 107//62
f 112//63 109//63 111//63
f 110//64 105//64 109//64
f 111//65 105//65 107//65
f 108//66 110//66 112//66
f 106//61 108//61 107//61
f 108//62 112//62 111//62
f 112//63 110//63 109//63
f 110//64 106//64 105//64
f 111//65 109//65 105//65
f 108//66 106//66 110//66
